<?xml version="1.0" encoding="UTF-8" standalone="no"?>
<svg xmlns:dc="http://purl.org/dc/elements/1.1/"
  xmlns:cc="http://creativecommons.org/ns#"
  xmlns:rdf="http://www.w3.org/1999/02/22-rdf-syntax-ns#"
  xmlns:svg="http://www.w3.org/2000/svg"
  xmlns="http://www.w3.org/2000/svg" viewBox="0 0 75 75" version="1.0" xml:space="preserve">
  <g style="fill:none;stroke:#b97878;stroke-opacity:1" id="g1">
    <path id="path4182" d="M 61.71,62.611 C 70.903019,51.249874 72.745688,34.604507 66.302694,21.493863 65.027019,18.83284 63.448032,16.317763 61.609,14.01" style="fill:none;stroke:#ffffff;stroke-width:5;stroke-linecap:round;stroke-opacity:1" />
    <path id="path4180" d="m 55.082,20.537 c 7.78074,10.2413 7.828822,25.251901 0.096,35.539" style="fill:none;stroke:#ffffff;stroke-width:5;stroke-linecap:round;stroke-opacity:1" />
    <path id="path4178" d="M 48.128,49.03 C 52.229136,42.620375 52.19492,33.954385 48.043,27.577" style="fill:none;stroke:#ffffff;stroke-width:5;stroke-linecap:round;stroke-opacity:1" />
    <path id="path8" d="m 39.389,13.769 c -5.718,4.945667 -11.436,9.891333 -17.154,14.837 -5.411667,0 -10.823333,0 -16.235,0 0,6.364333 0,12.728667 0,19.093 5.329667,0 10.659333,0 15.989,0 5.8,5.017 11.6,10.034 17.4,15.051 0,-16.327 0,-32.654 0,-48.981 z" style="fill:#ffffff;stroke:#ffffff;stroke-width:5;stroke-linecap:round;stroke-opacity:1;fill-opacity:1" />
  </g>
</svg>